<svg width="156" height="32" viewBox="0 0 156 32" fill="none" xmlns="http://www.w3.org/2000/svg">
<path d="M0 16C0 7.16344 7.16344 0 16 0V0C24.8366 0 32 7.16344 32 16V16C32 24.8366 24.8366 32 16 32V32C7.16344 32 0 24.8366 0 16V16Z" fill="#25D09D"/>
<path d="M7 14C7 12.8954 7.89543 12 9 12H12V23C12 23.5523 11.5523 24 11 24H7V14Z" fill="white"/>
<path d="M13 17C13 15.8954 13.8954 15 15 15H18V23C18 23.5523 17.5523 24 17 24H13V17Z" fill="white"/>
<path d="M19 10C19 8.89543 19.8954 8 21 8H24V23C24 23.5523 23.5523 24 23 24H19V10Z" fill="white"/>
<path d="M40.16 25.024C40.528 23.264 40.88 21.528 41.216 19.816C41.36 19.096 41.504 18.344 41.648 17.56C41.792 16.776 41.928 16.008 42.056 15.256C42.2 14.488 42.32 13.752 42.416 13.048C42.528 12.328 42.624 11.672 42.704 11.08C42.336 11.032 41.96 11.016 41.576 11.032C41.208 11.048 40.84 11 40.472 10.888C40.488 10.632 40.496 10.336 40.496 10C40.496 9.664 40.504 9.328 40.52 8.992C40.536 8.624 40.552 8.232 40.568 7.816C40.984 7.848 41.4 7.872 41.816 7.888C42.232 7.904 42.648 7.912 43.064 7.912C43.88 7.912 44.664 7.896 45.416 7.864C46.184 7.816 46.888 7.768 47.528 7.72C48.184 7.656 48.824 7.584 49.448 7.504L49.184 8.8C49.104 9.168 49.024 9.544 48.944 9.928C48.88 10.312 48.816 10.64 48.752 10.912C48.4 11.008 48.04 11.08 47.672 11.128C47.32 11.16 46.968 11.208 46.616 11.272C46.504 11.816 46.384 12.424 46.256 13.096C46.128 13.752 46 14.44 45.872 15.16C45.76 15.864 45.648 16.584 45.536 17.32C45.424 18.056 45.312 18.76 45.2 19.432C44.944 21.016 44.704 22.656 44.48 24.352L40.16 25.024ZM55.5273 24.52C55.1273 24.584 54.6873 24.656 54.2073 24.736C53.7273 24.816 53.2953 24.888 52.9113 24.952C52.9753 24.424 53.0393 23.904 53.1033 23.392C53.1513 22.944 53.1913 22.496 53.2233 22.048C53.2713 21.6 53.3113 21.216 53.3433 20.896H51.2553L50.2953 24.352C49.9433 24.4 49.5273 24.456 49.0473 24.52C48.5673 24.568 48.1193 24.616 47.7033 24.664C47.1913 24.728 46.6873 24.792 46.1913 24.856C46.8313 22.728 47.4633 20.632 48.0873 18.568C48.3433 17.704 48.6073 16.8 48.8793 15.856C49.1673 14.912 49.4473 13.976 49.7193 13.048C50.0073 12.104 50.2793 11.2 50.5353 10.336C50.7913 9.472 51.0153 8.68 51.2073 7.96C52.2953 7.88 53.3993 7.784 54.5193 7.672C55.6553 7.56 56.7593 7.408 57.8313 7.216C57.7833 7.728 57.7273 8.368 57.6633 9.136C57.6153 9.888 57.5673 10.712 57.5193 11.608C57.4713 12.504 57.4233 13.44 57.3753 14.416C57.3273 15.392 57.2793 16.352 57.2313 17.296C57.1513 19.504 57.0633 21.848 56.9673 24.328C56.4873 24.408 56.0073 24.472 55.5273 24.52ZM51.8313 18.496C51.8953 18.496 52.0073 18.496 52.1673 18.496C52.3433 18.48 52.5193 18.472 52.6953 18.472C52.8873 18.456 53.0633 18.448 53.2233 18.448C53.3833 18.432 53.4953 18.416 53.5593 18.4C53.5593 18.304 53.5673 18.144 53.5833 17.92C53.6153 17.68 53.6393 17.416 53.6553 17.128C53.6873 16.824 53.7193 16.496 53.7513 16.144C53.7833 15.792 53.8153 15.448 53.8473 15.112C53.9113 14.296 53.9913 13.416 54.0873 12.472L54.2313 10.384L53.8713 10.408L53.3193 12.472L51.8313 18.496ZM57.1741 25.024C57.6061 22.896 58.0221 20.816 58.4221 18.784C58.5661 17.92 58.7261 17.024 58.9021 16.096C59.0781 15.152 59.2381 14.224 59.3821 13.312C59.5421 12.384 59.6861 11.496 59.8141 10.648C59.9581 9.784 60.0701 9 60.1501 8.296C61.0621 8.008 62.0461 7.8 63.1021 7.672C64.1581 7.528 65.2061 7.456 66.2461 7.456C66.8701 7.456 67.3821 7.528 67.7821 7.672C68.1981 7.816 68.5181 8.024 68.7421 8.296C68.9821 8.552 69.1501 8.856 69.2461 9.208C69.3421 9.56 69.3901 9.952 69.3901 10.384C69.3901 11.024 69.2781 11.656 69.0541 12.28C68.8301 12.888 68.5261 13.472 68.1421 14.032C67.7741 14.576 67.3421 15.08 66.8461 15.544C66.3661 15.992 65.8461 16.36 65.2861 16.648C65.5741 17.288 65.8781 17.992 66.1981 18.76C66.5341 19.512 66.8461 20.232 67.1341 20.92C67.4541 21.72 67.7821 22.52 68.1181 23.32L64.3981 24.616C64.0781 23.592 63.7901 22.632 63.5341 21.736C63.4221 21.368 63.3101 20.992 63.1981 20.608C63.0861 20.208 62.9821 19.832 62.8861 19.48C62.7901 19.128 62.7101 18.816 62.6461 18.544C62.5821 18.256 62.5421 18.024 62.5261 17.848L62.2141 17.944C62.1181 18.456 61.9981 19.056 61.8541 19.744C61.7261 20.432 61.6061 21.096 61.4941 21.736C61.3501 22.488 61.2061 23.248 61.0621 24.016L57.1741 25.024ZM62.8141 14.608C63.1181 14.576 63.4861 14.448 63.9181 14.224C64.3661 14 64.7901 13.736 65.1901 13.432C65.5901 13.112 65.9341 12.784 66.2221 12.448C66.5101 12.112 66.6541 11.816 66.6541 11.56C66.6541 11.384 66.5981 11.248 66.4861 11.152C66.3741 11.04 66.2141 10.96 66.0061 10.912C65.8141 10.848 65.5981 10.808 65.3581 10.792C65.1181 10.776 64.8701 10.768 64.6141 10.768C64.4381 10.768 64.2541 10.776 64.0621 10.792C63.8861 10.792 63.7261 10.792 63.5821 10.792L62.8141 14.608ZM80.7982 15.856C80.6862 17.488 80.3662 18.912 79.8382 20.128C79.3102 21.328 78.6702 22.336 77.9182 23.152C77.1822 23.968 76.3822 24.576 75.5182 24.976C74.6702 25.376 73.8622 25.576 73.0942 25.576C72.5022 25.576 71.9342 25.448 71.3902 25.192C70.8622 24.936 70.3982 24.552 69.9982 24.04C69.6142 23.512 69.3102 22.856 69.0862 22.072C68.8622 21.288 68.7502 20.368 68.7502 19.312C68.7502 17.248 69.0462 15.448 69.6382 13.912C70.2302 12.376 70.9742 11.096 71.8702 10.072C72.7822 9.048 73.7502 8.288 74.7742 7.792C75.8142 7.296 76.7822 7.048 77.6782 7.048C78.3182 7.048 78.8702 7.16 79.3342 7.384C79.8142 7.608 80.2062 7.912 80.5102 8.296C80.8142 8.664 81.0302 9.104 81.1582 9.616C81.3022 10.112 81.3742 10.64 81.3742 11.2L78.0862 11.824C77.9422 11.184 77.7502 10.728 77.5102 10.456C77.2702 10.184 76.9982 10.048 76.6942 10.048C76.2942 10.048 75.8542 10.336 75.3742 10.912C74.8942 11.472 74.4462 12.2 74.0302 13.096C73.6142 13.992 73.2622 14.976 72.9742 16.048C72.6862 17.12 72.5262 18.176 72.4942 19.216C72.4942 20.208 72.6382 20.92 72.9262 21.352C73.2302 21.768 73.6142 21.976 74.0782 21.976C74.3982 21.976 74.7262 21.896 75.0622 21.736C75.4142 21.576 75.7262 21.352 75.9982 21.064C76.2702 20.76 76.4942 20.416 76.6702 20.032C76.8622 19.632 76.9662 19.2 76.9822 18.736L74.4142 19.12L74.8702 16.744C75.6222 16.648 76.3582 16.552 77.0782 16.456C77.6862 16.376 78.3262 16.28 78.9982 16.168C79.6862 16.056 80.2862 15.952 80.7982 15.856ZM79.9108 25.024L83.0548 7.96L90.6388 7.312C90.5268 7.664 90.4308 8.024 90.3508 8.392C90.2708 8.696 90.1908 9.016 90.1108 9.352C90.0468 9.672 89.9908 9.96 89.9428 10.216C89.7828 10.232 89.5508 10.248 89.2468 10.264C88.9588 10.264 88.6468 10.272 88.3108 10.288C87.9748 10.288 87.6308 10.288 87.2788 10.288C86.9428 10.288 86.6468 10.288 86.3908 10.288L85.5508 14.584C86.0468 14.552 86.5108 14.528 86.9428 14.512C87.2948 14.496 87.6548 14.488 88.0228 14.488C88.3908 14.488 88.6628 14.48 88.8388 14.464C88.7748 14.912 88.7108 15.352 88.6468 15.784C88.5988 16.216 88.5348 16.656 88.4548 17.104C88.2948 17.12 88.0308 17.136 87.6628 17.152C87.3108 17.152 86.9508 17.16 86.5828 17.176C86.1668 17.192 85.7108 17.208 85.2148 17.224L84.3988 21.64L87.9028 21.088L87.6628 23.824L79.9108 25.024ZM90.0584 25.024C90.4264 23.264 90.7784 21.528 91.1144 19.816C91.2584 19.096 91.4024 18.344 91.5464 17.56C91.6904 16.776 91.8264 16.008 91.9544 15.256C92.0984 14.488 92.2184 13.752 92.3144 13.048C92.4264 12.328 92.5224 11.672 92.6024 11.08C92.2344 11.032 91.8584 11.016 91.4744 11.032C91.1064 11.048 90.7384 11 90.3704 10.888C90.3864 10.632 90.3944 10.336 90.3944 10C90.3944 9.664 90.4024 9.328 90.4184 8.992C90.4344 8.624 90.4504 8.232 90.4664 7.816C90.8824 7.848 91.2984 7.872 91.7144 7.888C92.1304 7.904 92.5464 7.912 92.9624 7.912C93.7784 7.912 94.5624 7.896 95.3144 7.864C96.0824 7.816 96.7864 7.768 97.4264 7.72C98.0824 7.656 98.7224 7.584 99.3464 7.504L99.0824 8.8C99.0024 9.168 98.9224 9.544 98.8424 9.928C98.7784 10.312 98.7144 10.64 98.6504 10.912C98.2984 11.008 97.9384 11.08 97.5704 11.128C97.2184 11.16 96.8664 11.208 96.5144 11.272C96.4024 11.816 96.2824 12.424 96.1544 13.096C96.0264 13.752 95.8984 14.44 95.7704 15.16C95.6584 15.864 95.5464 16.584 95.4344 17.32C95.3224 18.056 95.2104 18.76 95.0984 19.432C94.8424 21.016 94.6024 22.656 94.3784 24.352L90.0584 25.024ZM97.5778 25.096L99.4018 8.056C100.154 8.024 100.858 7.952 101.514 7.84C102.186 7.712 102.85 7.624 103.506 7.576C103.506 7.592 103.482 7.76 103.434 8.08C103.386 8.384 103.322 8.792 103.242 9.304C103.162 9.8 103.074 10.368 102.978 11.008C102.882 11.632 102.738 12.496 102.546 13.6C102.37 14.704 102.13 16.232 101.826 18.184H102.186C102.602 16.712 102.946 15.512 103.218 14.584C103.49 13.64 103.706 12.88 103.866 12.304C104.042 11.712 104.202 11.144 104.346 10.6C104.506 10.056 104.65 9.552 104.778 9.088C104.922 8.624 105.034 8.232 105.114 7.912H105.33C105.618 7.912 105.906 7.896 106.194 7.864C106.498 7.832 106.778 7.8 107.034 7.768C107.306 7.72 107.586 7.664 107.874 7.6C107.842 7.744 107.802 8.04 107.754 8.488C107.722 8.936 107.674 9.48 107.61 10.12C107.546 10.744 107.482 11.44 107.418 12.208C107.354 12.96 107.29 13.704 107.226 14.44C107.162 15.16 107.098 15.848 107.034 16.504C106.986 17.16 106.938 17.72 106.89 18.184H107.322L109.602 7.864C110.146 7.784 110.682 7.712 111.21 7.648C111.674 7.584 112.154 7.52 112.65 7.456C113.146 7.392 113.586 7.32 113.97 7.24C113.73 7.912 113.49 8.664 113.25 9.496C113.01 10.312 112.762 11.176 112.506 12.088C112.25 13 112.002 13.92 111.762 14.848C111.538 15.776 111.314 16.672 111.09 17.536C110.578 19.584 110.082 21.688 109.602 23.848L104.178 24.76L105.234 15.496H104.946L102.57 24.208L97.5778 25.096ZM119.84 24.52C119.44 24.584 119 24.656 118.52 24.736C118.04 24.816 117.608 24.888 117.224 24.952C117.288 24.424 117.352 23.904 117.416 23.392C117.464 22.944 117.504 22.496 117.536 22.048C117.584 21.6 117.624 21.216 117.656 20.896H115.568L114.608 24.352C114.256 24.4 113.84 24.456 113.36 24.52C112.88 24.568 112.432 24.616 112.016 24.664C111.504 24.728 111 24.792 110.504 24.856C111.144 22.728 111.776 20.632 112.4 18.568C112.656 17.704 112.92 16.8 113.192 15.856C113.48 14.912 113.76 13.976 114.032 13.048C114.32 12.104 114.592 11.2 114.848 10.336C115.104 9.472 115.328 8.68 115.52 7.96C116.608 7.88 117.712 7.784 118.832 7.672C119.968 7.56 121.072 7.408 122.144 7.216C122.096 7.728 122.04 8.368 121.976 9.136C121.928 9.888 121.88 10.712 121.832 11.608C121.784 12.504 121.736 13.44 121.688 14.416C121.64 15.392 121.592 16.352 121.544 17.296C121.464 19.504 121.376 21.848 121.28 24.328C120.8 24.408 120.32 24.472 119.84 24.52ZM116.144 18.496C116.208 18.496 116.32 18.496 116.48 18.496C116.656 18.48 116.832 18.472 117.008 18.472C117.2 18.456 117.376 18.448 117.536 18.448C117.696 18.432 117.808 18.416 117.872 18.4C117.872 18.304 117.88 18.144 117.896 17.92C117.928 17.68 117.952 17.416 117.968 17.128C118 16.824 118.032 16.496 118.064 16.144C118.096 15.792 118.128 15.448 118.16 15.112C118.224 14.296 118.304 13.416 118.4 12.472L118.544 10.384L118.184 10.408L117.632 12.472L116.144 18.496ZM123.551 25.024C123.919 23.264 124.271 21.528 124.607 19.816C124.751 19.096 124.895 18.344 125.039 17.56C125.183 16.776 125.319 16.008 125.447 15.256C125.591 14.488 125.711 13.752 125.807 13.048C125.919 12.328 126.015 11.672 126.095 11.08C125.727 11.032 125.351 11.016 124.967 11.032C124.599 11.048 124.231 11 123.863 10.888C123.879 10.632 123.887 10.336 123.887 10C123.887 9.664 123.895 9.328 123.911 8.992C123.927 8.624 123.943 8.232 123.959 7.816C124.375 7.848 124.791 7.872 125.207 7.888C125.623 7.904 126.039 7.912 126.455 7.912C127.271 7.912 128.055 7.896 128.807 7.864C129.575 7.816 130.279 7.768 130.919 7.72C131.575 7.656 132.215 7.584 132.839 7.504L132.575 8.8C132.495 9.168 132.415 9.544 132.335 9.928C132.271 10.312 132.207 10.64 132.143 10.912C131.791 11.008 131.431 11.08 131.063 11.128C130.711 11.16 130.359 11.208 130.007 11.272C129.895 11.816 129.775 12.424 129.647 13.096C129.519 13.752 129.391 14.44 129.263 15.16C129.151 15.864 129.039 16.584 128.927 17.32C128.815 18.056 128.703 18.76 128.591 19.432C128.335 21.016 128.095 22.656 127.871 24.352L123.551 25.024ZM140.334 19.84C139.95 20.72 139.518 21.488 139.038 22.144C138.574 22.784 138.078 23.328 137.55 23.776C137.038 24.208 136.518 24.528 135.99 24.736C135.462 24.944 134.95 25.048 134.454 25.048C133.958 25.048 133.502 24.936 133.086 24.712C132.686 24.488 132.334 24.152 132.03 23.704C131.726 23.256 131.478 22.704 131.286 22.048C131.11 21.392 131.022 20.624 131.022 19.744C131.022 18.24 131.23 16.76 131.646 15.304C132.062 13.832 132.646 12.512 133.398 11.344C134.15 10.176 135.038 9.24 136.062 8.536C137.102 7.816 138.246 7.456 139.494 7.456C139.878 7.456 140.246 7.536 140.598 7.696C140.95 7.856 141.254 8.08 141.51 8.368C141.766 8.656 141.966 9.008 142.11 9.424C142.27 9.84 142.35 10.304 142.35 10.816C142.35 10.912 142.35 11.016 142.35 11.128C142.35 11.224 142.342 11.328 142.326 11.44L139.182 12.28C138.99 11.88 138.766 11.68 138.51 11.68C138.254 11.68 137.982 11.832 137.694 12.136C137.422 12.424 137.15 12.808 136.878 13.288C136.606 13.752 136.342 14.28 136.086 14.872C135.83 15.448 135.606 16.032 135.414 16.624C135.222 17.216 135.062 17.784 134.934 18.328C134.822 18.856 134.766 19.288 134.766 19.624C134.766 20.136 134.83 20.496 134.958 20.704C135.102 20.912 135.286 21.016 135.51 21.016C135.686 21.016 135.886 20.952 136.11 20.824C136.334 20.68 136.542 20.504 136.734 20.296C136.926 20.072 137.102 19.824 137.262 19.552C137.422 19.28 137.534 19.008 137.598 18.736L140.334 19.84ZM140.215 25.048C140.663 22.808 141.095 20.624 141.511 18.496C141.671 17.584 141.839 16.64 142.015 15.664C142.191 14.672 142.351 13.696 142.495 12.736C142.655 11.776 142.799 10.848 142.927 9.952C143.071 9.04 143.183 8.216 143.263 7.48C143.631 7.496 143.967 7.52 144.271 7.552C144.591 7.568 144.903 7.584 145.207 7.6C145.511 7.616 145.815 7.632 146.119 7.648C146.439 7.648 146.783 7.648 147.151 7.648C146.879 8.784 146.607 9.92 146.335 11.056C146.079 12.192 145.839 13.336 145.615 14.488L147.991 14.224C148.215 13.088 148.415 11.992 148.591 10.936C148.767 9.864 148.999 8.76 149.287 7.624C149.655 7.56 150.063 7.512 150.511 7.48C150.959 7.432 151.375 7.392 151.759 7.36C152.143 7.328 152.463 7.304 152.719 7.288C152.991 7.256 153.127 7.24 153.127 7.24C152.903 7.96 152.687 8.752 152.479 9.616C152.287 10.464 152.095 11.352 151.903 12.28C151.711 13.192 151.527 14.12 151.351 15.064C151.175 16.008 151.015 16.904 150.871 17.752C150.519 19.784 150.191 21.864 149.887 23.992L146.143 24.424C146.351 23.464 146.535 22.528 146.695 21.616C146.855 20.848 147.015 20.048 147.175 19.216C147.351 18.384 147.487 17.672 147.583 17.08L145.255 17.296C145.143 17.904 145.007 18.608 144.847 19.408C144.703 20.208 144.567 20.968 144.439 21.688C144.263 22.552 144.087 23.416 143.911 24.28L140.215 25.048Z" fill="#212529"/>
</svg>
